<svg width="15" height="16" viewBox="0 0 15 16" fill="none" xmlns="http://www.w3.org/2000/svg">
<path d="M13.125 5.34375H1.875C1.61875 5.34375 1.40625 5.13125 1.40625 4.875C1.40625 4.61875 1.61875 4.40625 1.875 4.40625H13.125C13.3812 4.40625 13.5938 4.61875 13.5938 4.875C13.5938 5.13125 13.3812 5.34375 13.125 5.34375Z" fill="#292D32"/>
<path d="M11.25 8.46875H3.75C3.49375 8.46875 3.28125 8.25625 3.28125 8C3.28125 7.74375 3.49375 7.53125 3.75 7.53125H11.25C11.5062 7.53125 11.7188 7.74375 11.7188 8C11.7188 8.25625 11.5062 8.46875 11.25 8.46875Z" fill="#292D32"/>
<path d="M8.75 11.5938H6.25C5.99375 11.5938 5.78125 11.3812 5.78125 11.125C5.78125 10.8688 5.99375 10.6562 6.25 10.6562H8.75C9.00625 10.6562 9.21875 10.8688 9.21875 11.125C9.21875 11.3812 9.00625 11.5938 8.75 11.5938Z" fill="#292D32"/>
</svg>
