<svg width="36" height="37" viewBox="0 0 36 37" fill="none" xmlns="http://www.w3.org/2000/svg">
<rect y="0.5" width="36" height="36" rx="8" fill="#F7F9FC"/>
<path d="M13.3973 17.8539C16.2606 16.5368 18.17 15.6684 19.1253 15.2489C21.853 14.051 22.4197 13.8429 22.7892 13.836C22.8704 13.8346 23.0521 13.8558 23.1698 13.9566C23.2691 14.0418 23.2965 14.1568 23.3096 14.2375C23.3226 14.3182 23.3389 14.5021 23.326 14.6457C23.1782 16.2855 22.5386 20.2649 22.2132 22.1014C22.0755 22.8786 21.8044 23.1391 21.542 23.1646C20.9716 23.2201 20.5385 22.7667 19.986 22.3843C19.1216 21.786 18.6332 21.4136 17.7941 20.8297C16.8243 20.155 17.453 19.7842 18.0056 19.1781C18.1503 19.0195 20.6634 16.606 20.712 16.3871C20.7181 16.3597 20.7237 16.2577 20.6663 16.2038C20.6089 16.1499 20.5241 16.1683 20.463 16.183C20.3763 16.2037 18.9953 17.1675 16.32 19.0742C15.928 19.3584 15.5729 19.4968 15.2548 19.4896C14.9041 19.4816 14.2295 19.2802 13.728 19.1081C13.1129 18.897 12.6241 18.7854 12.6666 18.4269C12.6888 18.2401 12.9324 18.0491 13.3973 17.8539Z" fill="#0C0C0C"/>
</svg>
