<svg width="12" height="12" viewBox="0 0 12 12" fill="none" xmlns="http://www.w3.org/2000/svg">
<path d="M4 9.4641C4.60808 9.81518 5.29785 10 6 10C6.70215 10 7.39192 9.81518 8 9.4641C8.60808 9.11303 9.11303 8.60808 9.4641 8C9.81517 7.39192 10 6.70215 10 6C10 5.29785 9.81517 4.60808 9.4641 4C9.11303 3.39192 8.60808 2.88697 8 2.5359C7.39192 2.18483 6.70215 2 6 2C5.29785 2 4.60808 2.18482 4 2.5359" stroke="white"/>
<path d="M1 6L0.609566 5.68765L0.359688 6L0.609566 6.31235L1 6ZM5.5 6.5C5.77614 6.5 6 6.27614 6 6C6 5.72386 5.77614 5.5 5.5 5.5V6.5ZM2.60957 3.18765L0.609566 5.68765L1.39043 6.31235L3.39043 3.81235L2.60957 3.18765ZM0.609566 6.31235L2.60957 8.81235L3.39043 8.18765L1.39043 5.68765L0.609566 6.31235ZM1 6.5H5.5V5.5H1V6.5Z" fill="white"/>
</svg>
