<svg width="16" height="16" viewBox="0 0 16 16" fill="none" xmlns="http://www.w3.org/2000/svg">
<path d="M11.5956 10.4467L8.90226 8H7.0956L4.40226 10.4467C3.64893 11.1267 3.40226 12.1733 3.76893 13.12C4.1356 14.06 5.02893 14.6667 6.0356 14.6667H9.96226C10.9756 14.6667 11.8623 14.06 12.2289 13.12C12.5956 12.1733 12.3489 11.1267 11.5956 10.4467ZM9.2156 12.0933H6.78893C6.5356 12.0933 6.3356 11.8867 6.3356 11.64C6.3356 11.3933 6.54226 11.1867 6.78893 11.1867H9.2156C9.46893 11.1867 9.66893 11.3933 9.66893 11.64C9.66893 11.8867 9.46226 12.0933 9.2156 12.0933Z" fill="#292D32"/>
<path d="M12.2312 2.8826C11.8645 1.9426 10.9712 1.33594 9.96449 1.33594H6.03116C5.0245 1.33594 4.13116 1.9426 3.7645 2.8826C3.4045 3.82927 3.65116 4.87594 4.4045 5.55594L7.09783 8.0026H8.90449L11.5978 5.55594C12.3445 4.87594 12.5912 3.82927 12.2312 2.8826ZM9.21116 4.8226H6.7845C6.53116 4.8226 6.33116 4.61594 6.33116 4.36927C6.33116 4.1226 6.53783 3.91594 6.7845 3.91594H9.21116C9.46449 3.91594 9.66449 4.1226 9.66449 4.36927C9.66449 4.61594 9.45783 4.8226 9.21116 4.8226Z" fill="#292D32"/>
</svg>
