<svg width="15" height="16" viewBox="0 0 15 16" fill="none" xmlns="http://www.w3.org/2000/svg">
<path d="M5.62969 13.7781C5.51094 13.7781 5.39219 13.7344 5.29844 13.6406L2.16719 10.5094C1.98594 10.3281 1.98594 10.0281 2.16719 9.84687C2.34844 9.66563 2.64844 9.66563 2.82969 9.84687L5.96094 12.9781C6.14219 13.1594 6.14219 13.4594 5.96094 13.6406C5.86719 13.7281 5.74844 13.7781 5.62969 13.7781Z" fill="#292D32"/>
<path d="M5.63281 13.7812C5.37656 13.7812 5.16406 13.5688 5.16406 13.3125V2.6875C5.16406 2.43125 5.37656 2.21875 5.63281 2.21875C5.88906 2.21875 6.10156 2.43125 6.10156 2.6875V13.3125C6.10156 13.5688 5.88906 13.7812 5.63281 13.7812Z" fill="#292D32"/>
<path d="M12.5047 6.28594C12.3859 6.28594 12.2672 6.24219 12.1734 6.14844L9.04219 3.01719C8.86094 2.83594 8.86094 2.53594 9.04219 2.35469C9.22344 2.17344 9.52344 2.17344 9.70469 2.35469L12.8359 5.48594C13.0172 5.66719 13.0172 5.96719 12.8359 6.14844C12.7422 6.24219 12.6234 6.28594 12.5047 6.28594Z" fill="#292D32"/>
<path d="M9.36719 13.7812C9.11094 13.7812 8.89844 13.5688 8.89844 13.3125V2.6875C8.89844 2.43125 9.11094 2.21875 9.36719 2.21875C9.62344 2.21875 9.83594 2.43125 9.83594 2.6875V13.3125C9.83594 13.5688 9.62969 13.7812 9.36719 13.7812Z" fill="#292D32"/>
</svg>
