<svg width="22" height="22" viewBox="0 0 22 22" fill="none" xmlns="http://www.w3.org/2000/svg">
<path d="M11.0026 1.83594C5.95177 1.83594 1.83594 5.95177 1.83594 11.0026C1.83594 16.0534 5.95177 20.1693 11.0026 20.1693C16.0534 20.1693 20.1693 16.0534 20.1693 11.0026C20.1693 5.95177 16.0534 1.83594 11.0026 1.83594ZM15.3843 8.89427L10.1868 14.0918C10.0584 14.2201 9.88427 14.2934 9.70094 14.2934C9.5176 14.2934 9.34344 14.2201 9.2151 14.0918L6.62094 11.4976C6.3551 11.2318 6.3551 10.7918 6.62094 10.5259C6.88677 10.2601 7.32677 10.2601 7.5926 10.5259L9.70094 12.6343L14.4126 7.9226C14.6784 7.65677 15.1184 7.65677 15.3843 7.9226C15.6501 8.18844 15.6501 8.61927 15.3843 8.89427Z" fill="#00A040"/>
</svg>
