<svg width="54" height="55" viewBox="0 0 54 55" fill="none" xmlns="http://www.w3.org/2000/svg">
<rect y="0.898438" width="54" height="54" rx="24" fill="white"/>
<path d="M12.1358 27.3033C19.9875 23.8105 25.2232 21.5078 27.8429 20.3953C35.3227 17.2188 36.8769 16.667 37.8899 16.6486C38.1128 16.6448 38.6109 16.7012 38.9336 16.9685C39.2061 17.1943 39.2811 17.4992 39.317 17.7133C39.3528 17.9273 39.3975 18.4149 39.362 18.7958C38.9567 23.1442 37.2028 33.6966 36.3105 38.5668C35.933 40.6276 35.1896 41.3186 34.4699 41.3862C32.9058 41.5331 31.7181 40.3308 30.2032 39.3169C27.8327 37.7303 26.4935 36.7427 24.1925 35.1945C21.5333 33.4053 23.2571 32.4219 24.7726 30.8148C25.1692 30.3942 32.0606 23.9942 32.194 23.4136C32.2107 23.341 32.2262 23.0703 32.0687 22.9274C31.9112 22.7845 31.6788 22.8333 31.511 22.8722C31.2733 22.9273 27.4863 25.4829 20.1502 30.5391C19.0753 31.2927 18.1017 31.6599 17.2294 31.6407C16.2677 31.6195 14.4178 31.0855 13.0427 30.6291C11.3559 30.0693 10.0154 29.7733 10.1321 28.8226C10.1929 28.3274 10.8608 27.8209 12.1358 27.3033Z" fill="white"/>
<path d="M12.1358 27.3033C19.9875 23.8105 25.2232 21.5078 27.8429 20.3953C35.3227 17.2188 36.8769 16.667 37.8899 16.6486C38.1128 16.6448 38.6109 16.7012 38.9336 16.9685C39.2061 17.1943 39.2811 17.4992 39.317 17.7133C39.3528 17.9273 39.3975 18.4149 39.362 18.7958C38.9567 23.1442 37.2028 33.6966 36.3105 38.5668C35.933 40.6276 35.1896 41.3186 34.4699 41.3862C32.9058 41.5331 31.7181 40.3308 30.2032 39.3169C27.8327 37.7303 26.4935 36.7427 24.1925 35.1945C21.5333 33.4053 23.2571 32.4219 24.7726 30.8148C25.1692 30.3942 32.0606 23.9942 32.194 23.4136C32.2107 23.341 32.2262 23.0703 32.0687 22.9274C31.9112 22.7845 31.6788 22.8333 31.511 22.8722C31.2733 22.9273 27.4863 25.4829 20.1502 30.5391C19.0753 31.2927 18.1017 31.6599 17.2294 31.6407C16.2677 31.6195 14.4178 31.0855 13.0427 30.6291C11.3559 30.0693 10.0154 29.7733 10.1321 28.8226C10.1929 28.3274 10.8608 27.8209 12.1358 27.3033Z" fill="url(#paint0_linear_932_7464)"/>
<defs>
<linearGradient id="paint0_linear_932_7464" x1="43.0528" y1="41.3984" x2="9.80598" y2="13.0272" gradientUnits="userSpaceOnUse">
<stop stop-color="#67ADF9"/>
<stop offset="1" stop-color="#A37EEB"/>
<stop offset="1" stop-color="#7A43E5"/>
</linearGradient>
</defs>
</svg>
