<svg width="54" height="55" viewBox="0 0 54 55" fill="none" xmlns="http://www.w3.org/2000/svg">
<rect y="0.898438" width="54" height="54" rx="24" fill="white"/>
<g clip-path="url(#clip0_913_7115)">
<path d="M33.0546 12.8984H27.8302V34.0143C27.8302 36.5303 25.8208 38.597 23.3203 38.597C20.8197 38.597 18.8103 36.5303 18.8103 34.0143C18.8103 31.5434 20.7751 29.5216 23.1863 29.4318V24.1303C17.8726 24.2202 13.5859 28.5782 13.5859 34.0143C13.5859 39.4956 17.9619 43.8984 23.3649 43.8984C28.7679 43.8984 33.1439 39.4506 33.1439 34.0143V23.1868C35.1086 24.6245 37.5199 25.4782 40.0651 25.5231V20.2216C36.1357 20.0868 33.0546 16.8521 33.0546 12.8984Z" fill="white"/>
<path d="M33.0546 12.8984H27.8302V34.0143C27.8302 36.5303 25.8208 38.597 23.3203 38.597C20.8197 38.597 18.8103 36.5303 18.8103 34.0143C18.8103 31.5434 20.7751 29.5216 23.1863 29.4318V24.1303C17.8726 24.2202 13.5859 28.5782 13.5859 34.0143C13.5859 39.4956 17.9619 43.8984 23.3649 43.8984C28.7679 43.8984 33.1439 39.4506 33.1439 34.0143V23.1868C35.1086 24.6245 37.5199 25.4782 40.0651 25.5231V20.2216C36.1357 20.0868 33.0546 16.8521 33.0546 12.8984Z" fill="url(#paint0_linear_913_7115)"/>
</g>
<defs>
<linearGradient id="paint0_linear_913_7115" x1="43.3945" y1="43.8984" x2="5.71369" y2="20.6582" gradientUnits="userSpaceOnUse">
<stop stop-color="#67ADF9"/>
<stop offset="1" stop-color="#A37EEB"/>
<stop offset="1" stop-color="#7A43E5"/>
</linearGradient>
<clipPath id="clip0_913_7115">
<rect width="31" height="31" fill="white" transform="translate(11 12.8984)"/>
</clipPath>
</defs>
</svg>
