<svg width="22" height="22" viewBox="0 0 22 22" fill="none" xmlns="http://www.w3.org/2000/svg">
<path d="M15.6505 0H11.9428V14.9855C11.9428 16.771 10.5168 18.2377 8.74223 18.2377C6.96763 18.2377 5.54162 16.771 5.54162 14.9855C5.54162 13.2319 6.93594 11.7971 8.64718 11.7333V7.97103C4.87614 8.03477 1.83398 11.1275 1.83398 14.9855C1.83398 18.8754 4.93952 22 8.77393 22C12.6083 22 15.7138 18.8435 15.7138 14.9855V7.30143C17.1082 8.32174 18.8193 8.92754 20.6257 8.95944V5.1971C17.837 5.10145 15.6505 2.80579 15.6505 0Z" fill="white"/>
<path d="M15.6505 0H11.9428V14.9855C11.9428 16.771 10.5168 18.2377 8.74223 18.2377C6.96763 18.2377 5.54162 16.771 5.54162 14.9855C5.54162 13.2319 6.93594 11.7971 8.64718 11.7333V7.97103C4.87614 8.03477 1.83398 11.1275 1.83398 14.9855C1.83398 18.8754 4.93952 22 8.77393 22C12.6083 22 15.7138 18.8435 15.7138 14.9855V7.30143C17.1082 8.32174 18.8193 8.92754 20.6257 8.95944V5.1971C17.837 5.10145 15.6505 2.80579 15.6505 0Z" fill="url(#paint0_linear_216_246)"/>
<defs>
<linearGradient id="paint0_linear_216_246" x1="22.9884" y1="22" x2="-3.75277" y2="5.50691" gradientUnits="userSpaceOnUse">
<stop stop-color="#67ADF9"/>
<stop offset="1" stop-color="#A37EEB"/>
<stop offset="1" stop-color="#7A43E5"/>
</linearGradient>
</defs>
</svg>
