<svg width="53" height="55" viewBox="0 0 53 55" fill="none" xmlns="http://www.w3.org/2000/svg">
<rect y="0.898438" width="53" height="54" rx="24" fill="white"/>
<path d="M23.2407 31.5383V16.8984H28.8388V25.0067C33.3172 24.4661 36.1473 19.376 37.0025 16.8984H42.8338C42.134 22.0787 37.5079 26.0578 35.1365 27.259C39.1018 28.4978 44 34.4663 44 37.8448H37.9355C35.6963 32.0789 30.938 30.3371 28.8388 30.187V37.8448C15.6601 38.7457 8.66262 28.1599 9.01251 16.8984H14.8437C15.1936 27.4842 20.7916 30.6374 23.2407 31.5383Z" fill="#0C0C0C" fill-opacity="0.75"/>
<path d="M23.2407 31.5383V16.8984H28.8388V25.0067C33.3172 24.4661 36.1473 19.376 37.0025 16.8984H42.8338C42.134 22.0787 37.5079 26.0578 35.1365 27.259C39.1018 28.4978 44 34.4663 44 37.8448H37.9355C35.6963 32.0789 30.938 30.3371 28.8388 30.187V37.8448C15.6601 38.7457 8.66262 28.1599 9.01251 16.8984H14.8437C15.1936 27.4842 20.7916 30.6374 23.2407 31.5383Z" fill="url(#paint0_linear_913_7110)"/>
<defs>
<linearGradient id="paint0_linear_913_7110" x1="48.4007" y1="37.8984" x2="20.3188" y2="4.10331" gradientUnits="userSpaceOnUse">
<stop stop-color="#67ADF9"/>
<stop offset="1" stop-color="#A37EEB"/>
<stop offset="1" stop-color="#7A43E5"/>
</linearGradient>
</defs>
</svg>
