<svg width="36" height="36" viewBox="0 0 36 36" fill="none" xmlns="http://www.w3.org/2000/svg">
<rect width="36" height="36" rx="18" fill="white"/>
<path d="M15.3582 20.7599V11H19.0369V16.4055C21.9799 16.0451 23.8396 12.6517 24.4016 11H28.2336C27.7738 14.4535 24.7337 17.1062 23.1754 17.907C25.7812 18.7329 29 22.7119 29 24.9642H25.0148C23.5433 21.1203 20.4164 19.9591 19.0369 19.859V24.9642C10.3767 25.5648 5.7783 18.5076 6.00822 11H9.84018C10.0701 18.0572 13.7488 20.1593 15.3582 20.7599Z" fill="#0C0C0C" fill-opacity="0.75"/>
<path d="M15.3582 20.7599V11H19.0369V16.4055C21.9799 16.0451 23.8396 12.6517 24.4016 11H28.2336C27.7738 14.4535 24.7337 17.1062 23.1754 17.907C25.7812 18.7329 29 22.7119 29 24.9642H25.0148C23.5433 21.1203 20.4164 19.9591 19.0369 19.859V24.9642C10.3767 25.5648 5.7783 18.5076 6.00822 11H9.84018C10.0701 18.0572 13.7488 20.1593 15.3582 20.7599Z" fill="url(#paint0_linear_216_239)"/>
<defs>
<linearGradient id="paint0_linear_216_239" x1="31.8919" y1="25" x2="13.1231" y2="2.73542" gradientUnits="userSpaceOnUse">
<stop stop-color="#67ADF9"/>
<stop offset="1" stop-color="#A37EEB"/>
<stop offset="1" stop-color="#7A43E5"/>
</linearGradient>
</defs>
</svg>
