<svg width="30" height="30" viewBox="0 0 30 30" fill="none" xmlns="http://www.w3.org/2000/svg">
<path fill-rule="evenodd" clip-rule="evenodd" d="M4.75672 7.76142C5.88188 6.63659 7.40773 6.0047 8.99872 6.0047C10.5897 6.0047 12.1156 6.63659 13.2407 7.76142L14.9987 9.51792L16.7567 7.76142C17.3102 7.18836 17.9723 6.73126 18.7043 6.41681C19.4363 6.10235 20.2236 5.93684 21.0203 5.92991C21.817 5.92299 22.6071 6.0748 23.3444 6.37649C24.0818 6.67817 24.7517 7.12369 25.3151 7.68705C25.8784 8.2504 26.324 8.92031 26.6256 9.65769C26.9273 10.3951 27.0791 11.1851 27.0722 11.9818C27.0653 12.7785 26.8998 13.5658 26.5853 14.2978C26.2709 15.0299 25.8138 15.6919 25.2407 16.2454L14.9987 26.4889L4.75672 16.2454C3.63189 15.1203 3 13.5944 3 12.0034C3 10.4124 3.63189 8.88658 4.75672 7.76142V7.76142Z" fill="#E33A3A" stroke="#E33A3A" stroke-width="1.5" stroke-linejoin="round"/>
</svg>
