<svg width="24" height="24" viewBox="0 0 24 24" fill="none" xmlns="http://www.w3.org/2000/svg">
<path fill-rule="evenodd" clip-rule="evenodd" d="M3.80381 6.20757C4.70394 5.30771 5.92462 4.8022 7.19741 4.8022C8.4702 4.8022 9.69088 5.30771 10.591 6.20757L11.9974 7.61277L13.4038 6.20757C13.8466 5.74912 14.3762 5.38345 14.9619 5.13188C15.5475 4.88032 16.1773 4.74791 16.8147 4.74237C17.452 4.73683 18.0841 4.85828 18.674 5.09963C19.2639 5.34098 19.7998 5.69739 20.2505 6.14807C20.7012 6.59876 21.0576 7.13469 21.299 7.72459C21.5403 8.31449 21.6617 8.94656 21.6562 9.5839C21.6507 10.2212 21.5183 10.8511 21.2667 11.4367C21.0151 12.0223 20.6495 12.552 20.191 12.9948L11.9974 21.1896L3.80381 12.9948C2.90395 12.0946 2.39844 10.874 2.39844 9.60117C2.39844 8.32838 2.90395 7.1077 3.80381 6.20757V6.20757Z" fill="#E33A3A" stroke="#E33A3A" stroke-width="1.5" stroke-linejoin="round"/>
</svg>
