<svg width="20" height="20" viewBox="0 0 20 20" fill="none" xmlns="http://www.w3.org/2000/svg">
<g opacity="0.25">
<path fill-rule="evenodd" clip-rule="evenodd" d="M3.17115 5.17428C3.92126 4.42439 4.93849 4.00313 5.99914 4.00313C7.0598 4.00313 8.07703 4.42439 8.82714 5.17428L9.99914 6.34528L11.1711 5.17428C11.5401 4.79224 11.9815 4.48751 12.4695 4.27787C12.9575 4.06824 13.4824 3.95789 14.0135 3.95328C14.5447 3.94866 15.0714 4.04987 15.563 4.25099C16.0545 4.45211 16.5012 4.74913 16.8767 5.1247C17.2523 5.50027 17.5493 5.94688 17.7504 6.43846C17.9516 6.93005 18.0528 7.45677 18.0481 7.98788C18.0435 8.519 17.9332 9.04388 17.7235 9.5319C17.5139 10.0199 17.2092 10.4613 16.8271 10.8303L9.99914 17.6593L3.17115 10.8303C2.42126 10.0802 2 9.06293 2 8.00228C2 6.94162 2.42126 5.92439 3.17115 5.17428V5.17428Z" stroke="#020202" stroke-width="1.5" stroke-linejoin="round"/>
</g>
</svg>
