<svg width="20" height="20" viewBox="0 0 20 20" fill="none" xmlns="http://www.w3.org/2000/svg">
<path fill-rule="evenodd" clip-rule="evenodd" d="M3.17212 5.17184C3.92223 4.42195 4.93946 4.00069 6.00012 4.00069C7.06078 4.00069 8.07801 4.42195 8.82812 5.17184L10.0001 6.34284L11.1721 5.17184C11.5411 4.7898 11.9825 4.48507 12.4705 4.27543C12.9585 4.06579 13.4834 3.95545 14.0145 3.95083C14.5456 3.94622 15.0723 4.04743 15.5639 4.24855C16.0555 4.44967 16.5021 4.74669 16.8777 5.12226C17.2533 5.49783 17.5503 5.94443 17.7514 6.43602C17.9525 6.92761 18.0537 7.45432 18.0491 7.98544C18.0445 8.51656 17.9342 9.04144 17.7245 9.52945C17.5149 10.0175 17.2102 10.4588 16.8281 10.8278L10.0001 17.6568L3.17212 10.8278C2.42224 10.0777 2.00098 9.06049 2.00098 7.99984C2.00098 6.93918 2.42224 5.92195 3.17212 5.17184V5.17184Z" stroke="#020202" stroke-width="1.5" stroke-linejoin="round"/>
</svg>
